<svg width="48" height="48" viewBox="0 0 48 48" fill="none" xmlns="http://www.w3.org/2000/svg">
<path fill-rule="evenodd" clip-rule="evenodd" d="M7.5 34.5C7.5 33.6716 8.17157 33 9 33H39C39.8284 33 40.5 33.6716 40.5 34.5C40.5 35.3284 39.8284 36 39 36H9C8.17157 36 7.5 35.3284 7.5 34.5Z" fill="#929FE8"/>
<path fill-rule="evenodd" clip-rule="evenodd" d="M7.5 22.5C7.5 21.6716 8.17157 21 9 21H39C39.8284 21 40.5 21.6716 40.5 22.5C40.5 23.3284 39.8284 24 39 24H9C8.17157 24 7.5 23.3284 7.5 22.5Z" fill="#929FE8"/>
<path fill-rule="evenodd" clip-rule="evenodd" d="M7.5 10.5C7.5 9.67157 8.17157 9 9 9H39C39.8284 9 40.5 9.67157 40.5 10.5C40.5 11.3284 39.8284 12 39 12H9C8.17157 12 7.5 11.3284 7.5 10.5Z" fill="#929FE8"/>
</svg>
